<?xml version='1.0' encoding='iso-8859-1'?>
<!DOCTYPE svg PUBLIC '-//W3C//DTD SVG 1.1//EN' 'http://www.w3.org/Graphics/SVG/1.1/DTD/svg11.dtd'>
<svg fill="#000000" height="100px" width="100px" version="1.1" xmlns="http://www.w3.org/2000/svg" viewBox="0 0 24 24" xmlns:xlink="http://www.w3.org/1999/xlink">
  <g>
    <path d="M22,2V4H20V2H18V6a2,2,0,0,0,2,2V18a1,1,0,0,1-1,1H16V11H13V9h3V3a3,3,0,0,0-3-3H3A3,3,0,0,0,0,3V9H3v2H0V24H16V21h3a3,3,0,0,0,3-3V8a2,2,0,0,0,2-2V2ZM10.772,11.426,9.008,14.959l-1.789-.893L8.75,11H6.615A1.614,1.614,0,0,1,5.07,8.917L7.293,4.756l1.76.949L7.275,9H9.4a1.6,1.6,0,0,1,1.376,2.426Z"/>
  </g>
</svg>
