<?xml version='1.0' encoding='iso-8859-1'?>
<!DOCTYPE svg PUBLIC '-//W3C//DTD SVG 1.1//EN' 'http://www.w3.org/Graphics/SVG/1.1/DTD/svg11.dtd'>
<svg fill="#000000" height="100px" width="100px" version="1.1" xmlns="http://www.w3.org/2000/svg" viewBox="0 0 24 24" xmlns:xlink="http://www.w3.org/1999/xlink">
  <g>
    <path d="M6 2h12a2 2 0 0 1 2 2v16a2 2 0 0 1-2 2H6a2 2 0 0 1-2-2V4a2 2 0 0 1 2-2m1 2a1 1 0 0 0-1 1a1 1 0 0 0 1 1a1 1 0 0 0 1-1a1 1 0 0 0-1-1m3 0a1 1 0 0 0-1 1a1 1 0 0 0 1 1a1 1 0 0 0 1-1a1 1 0 0 0-1-1m2 4a6 6 0 0 0-6 6a6 6 0 0 0 6 6a6 6 0 0 0 6-6a6 6 0 0 0-6-6m-3.89 2.5H10c-.24 1.38 0 2.17.58 2.79c1.1 1.07 1.58 2.42 1.31 4.21H10c.24-1.38 0-2.17-.58-2.79c-1.1-1.07-1.57-2.42-1.31-4.21m4 0H14c-.24 1.38 0 2.17.58 2.79c1.1 1.07 1.58 2.42 1.31 4.21H14c.24-1.38 0-2.17-.58-2.79c-1.1-1.07-1.57-2.42-1.31-4.21"/>
  </g>
</svg>
