<?xml version='1.0' encoding='iso-8859-1'?>
<!DOCTYPE svg PUBLIC '-//W3C//DTD SVG 1.1//EN' 'http://www.w3.org/Graphics/SVG/1.1/DTD/svg11.dtd'>
<svg fill="#000000" height="100px" width="100px" version="1.1" xmlns="http://www.w3.org/2000/svg" viewBox="0 0 24 24" xmlns:xlink="http://www.w3.org/1999/xlink">
  <g fill="none" stroke="#000000" stroke-linecap="round" stroke-linejoin="round" stroke-width="2">
  <path fill="none" d="M3 7a1 1 0 0 1 1-1h16a1 1 0 0 1 1 1v10a1 1 0 0 1-1 1H4a1 1 0 0 1-1-1zm12-1v12m3-6h.01M18 15h.01M18 9h.01"/>
  <path d="M6.5 10.5c1-.667 1.5-.667 2.5 0c.833.347 1.667.926 2.5 0m-5 3c1-.667 1.5-.667 2.5 0c.833.347 1.667.926 2.5 0"/>
  </g>
</svg>
