<?xml version='1.0' encoding='iso-8859-1'?>
<!DOCTYPE svg PUBLIC '-//W3C//DTD SVG 1.1//EN' 'http://www.w3.org/Graphics/SVG/1.1/DTD/svg11.dtd'>
<svg fill="#000000" height="100px" width="100px" version="1.1" xmlns="http://www.w3.org/2000/svg" viewBox="0 0 20 20" xmlns:xlink="http://www.w3.org/1999/xlink">
  <g>
  <path d="M1.364 2.35v10.794h17.272V2.35zM19.09 1c.502 0 .909.403.909.9v11.694c0 .497-.407.9-.91.9l-8.53-.001v3.157h3.437c.377 0 .682.303.682.675a.678.678 0 0 1-.682.675H5.981a.678.678 0 0 1-.682-.675c0-.372.306-.674.682-.674l3.216-.001v-3.157H.909A.904.904 0 0 1 0 13.595V1.9c0-.497.407-.9.91-.9z"/>
  </g>
</svg>
