<?xml version='1.0' encoding='iso-8859-1'?>
<!DOCTYPE svg PUBLIC '-//W3C//DTD SVG 1.1//EN' 'http://www.w3.org/Graphics/SVG/1.1/DTD/svg11.dtd'>
<svg fill="#000000" height="100px" width="100px" version="1.1" xmlns="http://www.w3.org/2000/svg" viewBox="0 0 1600 1600" xmlns:xlink="http://www.w3.org/1999/xlink">
  <g>
  <path d="M1553,402.5l-18.6-18.6c-4-4-10.4-4-14.4,0l-86.1,86.1l-57.2-57.2l86.1-86.1c4-4,4-10.4,0-14.4l-18.6-18.6   c-4-4-10.4-4-14.4,0l-86.1,86.1l-47-47c-48.6,48.6-57.8,121.8-27.5,179.7c-18,17.7-31.6,38.1-40.6,61.2c-2.7,6.8-4.9,13.8-6.7,21   c-39.6-45-74.3-73.2-74.3-73.2c-70.9-60.6-175.6-93.2-303.3-84.3c-190.4,13.3-267.9,98.6-324.4,160.9   c-34.7,38.3-55.9,60.1-87.2,64.8c-225.4,33.4-347,133.2-333.7,273.8c7.5,78.9,30.5,132.6,68.6,159.5c0,0,29.6,17.7,66,17.2h54.9   c27.4,69.8,95.5,119.3,174.9,119.3s147.5-49.5,174.9-119.3h236.9c27.4,69.8,95.5,119.3,174.9,119.3c88.3,0,162.6-61.3,182.6-143.6   c26.9-34.9,88.8-126.1,101.7-225.3c7.3-56.4-10.1-112.6-36.9-162.6c-3.8-12.3-7.4-27.5-8.8-43.8c-3.1-37.3,6.2-67.1,28.3-90.4   c59.9,42.3,143.3,36.6,197-17l-47-47l86.1-86.1C1557,412.9,1557,406.4,1553,402.5z M463.3,1159.8c-63.4,0-114.9-51.6-114.9-114.9   c0-63.4,51.6-114.9,114.9-114.9s114.9,51.6,114.9,114.9C578.2,1108.3,526.7,1159.8,463.3,1159.8z M1050,1159.8   c-63.4,0-114.9-51.6-114.9-114.9c0-63.4,51.6-114.9,114.9-114.9c63.4,0,114.9,51.6,114.9,114.9   C1165,1108.3,1113.4,1159.8,1050,1159.8z M1261.7,870.9c-2.2,38.8-16.9,78-35.1,109.7c-26.3-72.1-95.5-123.6-176.5-123.6   c-102.1,0-185.4,81.9-187.8,183.4H651.1c-2.4-101.5-85.7-183.4-187.8-183.4s-185.4,81.9-187.8,183.4h-45.4c-21,0.3-22.2-5-22.2-5   c-10.7-8.6-29.7-33.7-36.5-105.6c-12.5-132.6,164.9-178.9,271.8-194.8c58.7-8.7,93.6-47.2,130.6-87.9   c53.6-59,114.3-126,275.5-137.2c13.6-1,26.8-1.4,39.5-1.4c87,0,154.7,22,201.6,65.6C1090.3,574.1,1271.1,702.5,1261.7,870.9z"/>
  </g>
</svg>
