<?xml version='1.0' encoding='iso-8859-1'?>
<!DOCTYPE svg PUBLIC '-//W3C//DTD SVG 1.1//EN' 'http://www.w3.org/Graphics/SVG/1.1/DTD/svg11.dtd'>
<svg fill="#000000" height="100px" width="100px" version="1.1" xmlns="http://www.w3.org/2000/svg" viewBox="0 0 960 960" xmlns:xlink="http://www.w3.org/1999/xlink">
  <g>
  <path fill="none" stroke="#000000" stroke-width="20" d="M840 80H420a40.045 40.045 0 0 0-40 40v550a40.045 40.045 0 0 0 40 40h10v55a95 95 0 0 1-190 0V520.218l9.589-210.952a120 120 0 1 0-99.178 0L160 520.218V765c0 96.5 78.505 175 175 175s175-78.5 175-175v-55h240v220a10 10 0 0 0 20 0V770h40v160a10 10 0 0 0 20 0V710h10a40.045 40.045 0 0 0 40-40V120a40.045 40.045 0 0 0-40-40ZM490 750h-40v-40h40ZM180 530h40v40h-40Zm-80-330a100 100 0 1 1 100 100 100.112 100.112 0 0 1-100-100Zm100 120a119.821 119.821 0 0 0 29.245-3.611L220.444 510h-40.888l-8.8-193.611A119.821 119.821 0 0 0 200 320Zm135 600c-85.467 0-155-69.533-155-155V590h40v175a115 115 0 0 0 229.893 5h40.028C487.27 853.16 418.793 920 335 920Zm415-230H510V310h240Zm60 60h-40v-40h40Zm50-80a20.023 20.023 0 0 1-20 20h-70V300a10 10 0 0 0-10-10H500a10 10 0 0 0-10 10v390h-70a20.023 20.023 0 0 1-20-20V120a20.023 20.023 0 0 1 20-20h420a20.023 20.023 0 0 1 20 20ZM200 210a10 10 0 1 1 10-10 10 10 0 0 1-10 10Zm-50-10a10 10 0 1 1-10-10 10 10 0 0 1 10 10Zm100 0a10 10 0 1 1 10 10 10 10 0 0 1-10-10Zm-30-50a10 10 0 1 1 10 10 10 10 0 0 1-10-10Zm0 100a10 10 0 1 1 10 10 10 10 0 0 1-10-10Zm-40-100a10 10 0 1 1-10-10 10 10 0 0 1 10 10Zm0 100a10 10 0 1 1-10-10 10 10 0 0 1 10 10Zm450 230a60 60 0 1 0-60-60 60.068 60.068 0 0 0 60 60Zm0-100a40 40 0 1 1-40 40 40.045 40.045 0 0 1 40-40Zm0 260a60 60 0 1 0-60-60 60.068 60.068 0 0 0 60 60Zm0-100a40 40 0 1 1-40 40 40.045 40.045 0 0 1 40-40Z"/>
  </g>
</svg>
